# xmcd
#
# Track frame offsets:
#	150
#	19680
#	40702
#	54334
#	72214
#	85450
#	100396
#	115486
#	131027
#	143679
#	160071
#	172518
#	190425
#
# Disc length: 2750 seconds
#
# Revision: 0
# Processed by: cddbd v1.5.2PL0 Copyright (c) Steve Scherf et al.
# Submitted via: dBpowerAMP V4.0
#
DISCID=a90abc0d
DTITLE=Norah Jones - Not To Late
DYEAR=2007
DGENRE=Blues
TTITLE0=01 Wish I Could
TTITLE1=02 Sinkin' Soon
TTITLE2=03 The Sun Doesn't Like You
TTITLE3=04 Until The End
TTITLE4=05 Not My Friend
TTITLE5=06 Thinking About You
TTITLE6=07 Broken
TTITLE7=08 My Dear Country
TTITLE8=09 Wake Me Up
TTITLE9=10 Be My Somebody
TTITLE10=11 Little Room.
TTITLE11=12 Rosie's Lullaby
TTITLE12=13 Not Too Late
EXTD=
EXTT0=
EXTT1=
EXTT2=
EXTT3=
EXTT4=
EXTT5=
EXTT6=
EXTT7=
EXTT8=
EXTT9=
EXTT10=
EXTT11=
EXTT12=
PLAYORDER=
